<svg fill="#000000" xmlns="http://www.w3.org/2000/svg"  viewBox="0 0 48 48" width="144px" height="144px"><path d="M 24.021484 2.0058594 C 23.796484 2.0058594 23.571094 2.0832813 23.371094 2.2382812 C 21.786094 3.5792813 21.695391 3.6823281 19.900391 4.6113281 C 17.300391 5.2323281 14.999219 6.5779688 13.199219 8.5429688 C 10.699219 11.128969 9.3 14.645172 9 18.576172 L 8.9003906 18.576172 C 8.9003906 18.576172 6.9003906 20.336484 6.9003906 20.646484 C 7.0003906 23.336484 7.2992188 25.611719 7.6992188 27.886719 C 7.7992187 28.196719 10 28.921875 10 28.921875 C 10.2 29.955875 10.500781 30.989438 10.800781 32.023438 L 11 32.398438 L 11 38.351562 C 11 38.975563 11.4 39.390625 12 39.390625 C 12.6 39.390625 13 38.975563 13 38.351562 L 13 37.966797 C 13.045365 38.13588 13.105283 38.327598 13.148438 38.494141 L 13.154297 38.517578 L 13.160156 38.539062 C 13.543644 39.848034 14.300993 41.002175 15.298828 41.896484 L 15.324219 41.919922 L 15.349609 41.939453 C 17.007689 43.297973 19.884865 45.044922 24 45.044922 C 28.072539 45.044922 30.914177 43.334596 32.580078 41.982422 C 33.876442 41.076411 34.493299 39.721936 34.839844 38.539062 L 34.845703 38.517578 L 34.851562 38.494141 C 34.895446 38.324761 34.954114 38.12914 35 37.957031 L 35 38.351562 C 35 38.975563 35.4 39.390625 36 39.390625 C 36.6 39.390625 37 38.975563 37 38.351562 L 37 32.121094 C 37 32.09465 36.989703 32.074506 36.988281 32.048828 L 37 32.025391 C 37.3 30.991391 37.500781 29.957828 37.800781 28.923828 C 37.800781 28.923828 39.999609 28.198672 40.099609 27.888672 C 40.599609 25.612672 40.9 23.337437 41 20.648438 C 41 20.440438 39 18.681641 39 18.681641 C 38.7 14.750641 37.200781 11.232969 34.800781 8.5429688 C 33.000781 6.5779687 30.7 5.3353281 28 4.6113281 C 26.194 3.6773281 26.254875 3.5792813 24.671875 2.2382812 C 24.471875 2.0832812 24.246484 2.0058594 24.021484 2.0058594 z M 24.001953 2.9921875 C 24.602953 2.9921875 25.003906 3.3921406 25.003906 3.9941406 C 25.003906 4.5961406 24.602953 4.9980469 24.001953 4.9980469 C 23.400953 4.9980469 23 4.5961406 23 3.9941406 C 23 3.3921406 23.400953 2.9921875 24.001953 2.9921875 z M 25.478516 8.0566406 C 28.656216 8.1791392 30.97437 9.5417774 32.658203 11.601562 C 34.582208 13.955144 35.590855 17.305175 35.5 20.669922 C 35.308956 26.806665 33.285218 32.591711 31.958984 37.699219 C 31.709517 38.548148 31.326791 39.219469 30.855469 39.541016 L 30.800781 39.578125 L 30.75 39.619141 C 29.40808 40.71862 27.284865 42.044922 24 42.044922 C 20.739226 42.044922 18.632528 40.737207 17.289062 39.642578 C 16.696535 39.10592 16.255685 38.428123 16.041016 37.697266 C 16.041016 37.697266 16.039062 37.695312 16.039062 37.695312 C 14.706189 32.565786 12.59481 26.902368 12.5 20.689453 L 12.5 20.679688 L 12.5 20.671875 C 12.40853 17.30025 13.388429 14.127579 15.292969 11.84375 C 17.197508 9.5599211 19.99525 8.0859375 23.957031 8.0859375 L 24.009766 8.0859375 L 24.0625 8.0820312 C 24.552154 8.047349 25.024558 8.0391408 25.478516 8.0566406 z M 19 18 C 16.2 18 14 20.2 14 23 C 14 25.8 16.2 28 19 28 C 21.9 28 24 25 24 25 C 24 25 26.1 28 29 28 C 31.8 28 34 25.8 34 23 C 34 20.2 31.8 18 29 18 C 26.2 18 24.7 20.3 24 21 C 23.3 20.3 21.8 18 19 18 z M 19 20 C 20.7 20 22 21.3 22 23 C 22 24.7 20.7 26 19 26 C 17.3 26 16 24.7 16 23 C 16 21.3 17.3 20 19 20 z M 29 20 C 30.7 20 32 21.3 32 23 C 32 24.7 30.7 26 29 26 C 27.3 26 26 24.7 26 23 C 26 21.3 27.3 20 29 20 z M 19 22 C 18.4 22 18 22.4 18 23 C 18 23.6 18.4 24 19 24 C 19.6 24 20 23.6 20 23 C 20 22.4 19.6 22 19 22 z M 29 22 C 28.4 22 28 22.4 28 23 C 28 23.6 28.4 24 29 24 C 29.6 24 30 23.6 30 23 C 30 22.4 29.6 22 29 22 z M 22 34 C 21.4 34 21 34.4 21 35 C 21 35.6 21.4 36 22 36 L 26 36 C 26.6 36 27 35.6 27 35 C 27 34.4 26.6 34 26 34 L 22 34 z"/></svg>